<?xml version="1.0" encoding="utf-8"?>
<!-- Svg Vector Icons : http://www.onlinewebfonts.com/icon -->
<!DOCTYPE svg PUBLIC "-//W3C//DTD SVG 1.1//EN" "http://www.w3.org/Graphics/SVG/1.1/DTD/svg11.dtd">
<svg version="1.1" xmlns="http://www.w3.org/2000/svg" xmlns:xlink="http://www.w3.org/1999/xlink" x="0px" y="0px" viewBox="0 0 1000 1000" enable-background="new 0 0 1000 1000" xml:space="preserve">
<metadata> Svg Vector Icons : http://www.onlinewebfonts.com/icon </metadata>
<g><g transform="translate(0.000000,512.000000) scale(0.100000,-0.100000)"><path d="M1059.3,4987.9c-447.6-95.6-834-485.9-927.8-935.4c-42.1-200.9-42.1-7661.3,0-7862.2c95.6-455.3,482.1-841.7,937.3-937.3c200.9-42.1,7661.3-42.1,7862.2,0c455.3,95.6,841.7,482,937.4,937.3c42.1,200.9,42.1,7661.3,0,7860.3c-74.6,348.2-327.1,675.3-640.8,832.1c-158.8,76.5-367.3,133.9-491.6,135.8h-63.1V4196c0-910.6,0-902.9-120.5-975.6c-59.3-36.3-103.3-38.3-1103.8-38.3c-1000.5,0-1044.5,1.9-1103.8,38.3c-120.5,72.7-120.5,65-120.5,975.6v822.6H5000H3775.7V4196c0-910.6,0-902.9-120.5-975.6c-59.3-36.3-103.3-38.3-1099.9-38.3c-1145.9,0-1115.2-3.8-1189.9,120.5c-36.3,57.4-38.3,101.4-38.3,889.5v826.4l-70.8-1.9C1216.2,5016.6,1128.2,5003.2,1059.3,4987.9z M7117.6,970.8c216.2-110.9,346.2-346.3,327.1-589.2C7425.6,146.3,7460,186.5,6044.5-1231C4979-2298.4,4724.5-2543.3,4646.1-2579.7c-145.4-67-382.6-63.1-526.1,7.7c-147.3,72.7-1444.3,1371.6-1513.1,1517c-63.1,130.1-65,378.7-5.7,508.8c59.3,126.3,166.4,237.2,290.8,298.4c93.7,45.9,132,53.6,271.6,53.6c250.6,0,281.2-19.1,790-524.2l434.2-430.4L5417-125.4C5981.3,439,6473,919.1,6507.4,944C6673.8,1056.8,6928.3,1068.3,7117.6,970.8z"/><path d="M2059.8,4980.3c-112.9-68.9-120.5-105.2-120.5-573.9s7.7-505,120.5-573.9c55.5-34.4,97.6-38.3,491.6-38.3c631.3,0,612.1-17.2,612.1,616c0,625.5,17.2,608.3-616,608.3C2157.4,5018.5,2115.3,5014.7,2059.8,4980.3z"/><path d="M6956.9,4980.3c-112.9-68.9-120.5-105.2-120.5-573.9s7.7-505,120.5-573.9c55.5-34.4,97.6-38.3,491.6-38.3c631.3,0,612.1-17.2,612.1,616c0,625.5,17.2,608.3-616,608.3C7054.5,5018.5,7012.4,5014.7,6956.9,4980.3z"/></g></g>
</svg>