<svg fill="white" height="512pt" viewBox="0 0 512 512" width="512pt" xmlns="http://www.w3.org/2000/svg"><path d="m492.917969 210.308594c-.15625-.035156-.316407-.070313-.472657-.101563l-52.804687-10.371093c-3.585937-11.738282-8.296875-23.105469-14.078125-33.960938l30.007812-44.6875c.09375-.136719.179688-.269531.265626-.40625 6.109374-9.777344 4.683593-22.300781-3.46875-30.453125l-30.695313-30.695313c-8.152344-8.152343-20.671875-9.578124-30.453125-3.46875-.136719.085938-.269531.171876-.40625.265626l-44.6875 30.007812c-10.855469-5.78125-22.222656-10.492188-33.960938-14.078125l-10.371093-52.804687c-.03125-.15625-.066407-.316407-.101563-.472657-2.59375-11.234375-12.453125-19.082031-23.984375-19.082031h-43.414062c-11.53125 0-21.390625 7.847656-23.984375 19.082031-.035156.15625-.070313.316407-.101563.472657l-10.371093 52.804687c-11.738282 3.585937-23.105469 8.296875-33.960938 14.078125l-44.6875-30.007812c-.136719-.09375-.269531-.179688-.40625-.265626-9.777344-6.109374-22.300781-4.683593-30.453125 3.46875l-30.695313 30.695313c-8.152343 8.152344-9.578124 20.675781-3.46875 30.453125.085938.136719.171876.269531.265626.40625l30.007812 44.6875c-5.78125 10.855469-10.492188 22.222656-14.078125 33.960938l-52.804687 10.371093c-.15625.03125-.316407.066407-.472657.101563-11.234375 2.59375-19.082031 12.453125-19.082031 23.984375v43.414062c0 11.53125 7.847656 21.390625 19.082031 23.984375.15625.035156.316407.070313.472657.101563l52.804687 10.371093c3.585937 11.738282 8.296875 23.105469 14.078125 33.960938l-30.007812 44.6875c-.09375.136719-.179688.269531-.265626.40625-6.109374 9.777344-4.683593 22.300781 3.46875 30.453125l30.695313 30.695313c8.152344 8.15625 20.675781 9.578124 30.453125 3.46875.136719-.085938.269531-.171876.40625-.265626l44.6875-30.007812c10.855469 5.78125 22.222656 10.492188 33.960938 14.078125l10.371093 52.804687c.03125.15625.066407.316407.101563.472657 2.59375 11.234375 12.453125 19.082031 23.984375 19.082031h43.414062c11.53125 0 21.390625-7.847656 23.984375-19.082031.035156-.15625.070313-.316407.101563-.472657l10.371093-52.804687c11.738282-3.585937 23.105469-8.296875 33.960938-14.078125l44.6875 30.007812c.136719.09375.269531.179688.40625.265626 9.777344 6.109374 22.296875 4.683593 30.453125-3.46875l30.695313-30.695313c8.152343-8.152344 9.578124-20.675781 3.46875-30.453125-.085938-.136719-.171876-.269531-.265626-.40625l-30.007812-44.6875c5.78125-10.855469 10.492188-22.222656 14.078125-33.960938l52.804687-10.371093c.15625-.03125.316407-.066407.472657-.101563 11.234375-2.59375 19.082031-12.453125 19.082031-23.984375v-43.414062c0-11.53125-7.847656-21.390625-19.082031-23.984375zm-251.6875 30.921875h29.539062c21.714844 0 39.382813 17.667969 39.382813 39.386719 0 21.714843-17.667969 39.382812-39.382813 39.382812v24.617188c0 8.15625-6.613281 14.765624-14.769531 14.765624s-14.769531-6.609374-14.769531-14.765624v-24.617188h-24.613281c-8.160157 0-14.769532-6.613281-14.769532-14.769531s6.609375-14.769531 14.769532-14.769531h54.152343c5.429688 0 9.847657-4.417969 9.847657-9.84375 0-5.429688-4.417969-9.847657-9.847657-9.847657h-29.539062c-21.714844 0-39.382813-17.667969-39.382813-39.386719 0-21.714843 17.667969-39.382812 39.382813-39.382812v-24.617188c0-8.15625 6.613281-14.765624 14.769531-14.765624s14.769531 6.609374 14.769531 14.765624v24.617188h24.613281c8.160157 0 14.769532 6.613281 14.769532 14.769531s-6.609375 14.769531-14.769532 14.769531h-54.152343c-5.429688 0-9.847657 4.417969-9.847657 9.84375 0 5.429688 4.417969 9.847657 9.847657 9.847657zm0 0"/></svg>