<?xml version="1.0" encoding="iso-8859-1"?>
<!-- Generator: Adobe Illustrator 18.0.0, SVG Export Plug-In . SVG Version: 6.00 Build 0)  -->
<!DOCTYPE svg PUBLIC "-//W3C//DTD SVG 1.1//EN" "http://www.w3.org/Graphics/SVG/1.1/DTD/svg11.dtd">
<svg version="1.1" id="Capa_1" xmlns="http://www.w3.org/2000/svg" xmlns:xlink="http://www.w3.org/1999/xlink" x="0px" y="0px"
	 viewBox="0 0 297 297" style="enable-background:new 0 0 297 297;" xml:space="preserve">
<g>
	<path d="M50.541,101L29,120.366v56.268L50.541,196h195.918L268,176.634v-56.268L246.459,101H50.541z M82.5,156.5h-33
		c-4.418,0-8-3.582-8-8s3.582-8,8-8h33c4.418,0,8,3.582,8,8S86.918,156.5,82.5,156.5z M148.5,181.5c-18.226,0-33-14.774-33-33
		s14.774-33,33-33s33,14.774,33,33S166.726,181.5,148.5,181.5z M255.5,148.5c0,4.418-3.582,8-8,8h-33c-4.418,0-8-3.582-8-8
		s3.582-8,8-8h33C251.918,140.5,255.5,144.082,255.5,148.5z"/>
	<path d="M286.926,71.27H10.073C4.51,71.27,0,75.78,0,81.343v134.313c0,5.563,4.51,10.074,10.073,10.074h276.853
		c5.563,0,10.074-4.51,10.074-10.074V81.343C297,75.78,292.49,71.27,286.926,71.27z M284,180.199c0,2.27-0.964,4.432-2.651,5.949
		l-26.474,23.801c-1.469,1.32-3.374,2.051-5.349,2.051H47.474c-1.975,0-3.88-0.73-5.349-2.051l-26.474-23.801
		c-1.688-1.518-2.651-3.68-2.651-5.949v-63.398c0-2.269,0.964-4.432,2.651-5.949l26.474-23.801C43.594,85.73,45.499,85,47.474,85
		h202.053c1.975,0,3.88,0.73,5.349,2.051l26.474,23.801c1.688,1.518,2.651,3.68,2.651,5.949V180.199z"/>
</g>
<g>
</g>
<g>
</g>
<g>
</g>
<g>
</g>
<g>
</g>
<g>
</g>
<g>
</g>
<g>
</g>
<g>
</g>
<g>
</g>
<g>
</g>
<g>
</g>
<g>
</g>
<g>
</g>
<g>
</g>
</svg>
